<?xml version="1.0" encoding="UTF-8"?>
<svg id="Layer_1" xmlns="http://www.w3.org/2000/svg" version="1.1" viewBox="0 0 2477.51 2477.51">
  <!-- Generator: Adobe Illustrator 30.3.0, SVG Export Plug-In . SVG Version: 2.1.3 Build 182)  -->
  <defs>
    <style>
      .st0 {
        fill: #08a1dd;
      }

      .st1 {
        fill: #00338c;
      }
    </style>
  </defs>
  <path class="st0" d="M2004.61,31.95c-686.02,171.44-977.94,797.74-1087.6,1443.35-1.67,22.78,76.32,64.61,91.13,49.04,466.32-488.07,1161.35-642.78,996.47-1492.39ZM1655.93,726.99c-84.56,0-153.04-68.47-153.04-152.91s68.47-152.91,153.04-152.91,153.17,68.47,153.17,152.91-68.6,152.91-153.17,152.91Z"/>
  <path class="st0" d="M1360.52,1126.22l200.31-311.96-99.49-64.91-326.34,537.64c92.63-37.16,149.01-101.6,225.52-160.76Z"/>
  <path class="st0" d="M857.23,1439.09c-141.24,8.39-257.77.82-409.1,31.27,68.78-145.13,111.06-315.12,229.92-434.84,76.13-76.68,209.86-83.58,316.93-122.04-52.82,182.37-114.96,322.2-137.74,525.62Z"/>
  <path class="st0" d="M1355.53,2114.67c-25.89-152.55-59.44-269.87-142.51-395.24,142.72-104.96,260.59-212.55,400-353.28,121.92,364.51-14.82,469.33-257.5,748.52Z"/>
  <path class="st0" d="M765.49,2336.85c9.02,35.01,24.74,68.25,3.67,108.71-29.88-51.58-33.23-86.8-46.34-125.7-1.05-3.25-2.1-6.6-3.15-9.85-82.3-267.85-20.55-547.45,155.99-768.23,33.13,12.27,52.52,24.64,77.58,52.31-176.65,213.55-226.44,475.74-187.76,742.75Z"/>
  <path class="st1" d="M1630.97,1274.28c-400.79,346.94-773.71,566.33-783.74,1149.81-111.07-294.76-.62-619.06,213.96-852.61,296.13-322.32,699.38-483.59,955.75-890.21-24.55,263.17-207.5,431.44-385.97,593.01Z"/>
  <path class="st1" d="M1360.52,1126.22c-76.51,59.16-132.88,123.6-225.52,160.76l326.34-537.64,99.49,64.91-200.31,311.96Z"/>
</svg>